<svg width="164" height="45" viewBox="0 0 164 45" fill="none" xmlns="http://www.w3.org/2000/svg">
<path d="M52.3227 22.1945V28.2018H50.7V16.0579L54.7737 23.2211L58.8492 16.0579V28.2018H57.2265V22.1945L54.7809 26.4953L52.3227 22.1945Z" fill="#F8F8F8"/>
<path d="M62.6236 28.2055H61.0004V16.8225H62.623V28.2055H62.6236Z" fill="#F8F8F8"/>
<path d="M66.4033 20.5756V28.2102H64.7675V14.4373L70.4788 24.4617V16.8254H72.1098V30.6001L66.4033 20.5756Z" fill="#F8F8F8"/>
<path d="M75.8884 24.9479V28.1994H74.2657V16.8164H75.8884V23.329H79.9621V16.823H81.5847V28.206H79.9621V24.9479H75.8884Z" fill="#F8F8F8"/>
<path d="M84.8343 28.2052H83.1465L86.9849 14.4001L90.8233 28.2052H89.1373L86.9855 20.6774L84.8343 28.2052Z" fill="#F8F8F8"/>
<path d="M97.1484 16.822H98.7794V18.4409H97.1484C94.898 18.3962 93.0377 20.1796 92.9923 22.4247C92.9475 24.6699 94.735 26.5259 96.9853 26.5712C97.0397 26.5724 97.094 26.5724 97.1484 26.5712H98.7794V28.1901H97.1484C93.998 28.1901 91.4437 25.6417 91.4437 22.4986C91.4437 19.3555 93.998 16.8071 97.1484 16.8071V16.822Z" fill="#F8F8F8"/>
<path d="M108.207 16.8241V18.443H102.5V23.3295H108.207V24.9484H102.5V26.5673H108.207V28.1862H100.871V16.8032L108.207 16.8241Z" fill="#F8F8F8"/>
<path d="M111.993 20.5756V28.2102H110.354V14.4373L116.058 24.4617V16.8254H117.689V30.6001L111.993 20.5756Z" fill="#F8F8F8"/>
<path d="M120.933 28.2052H119.245L123.083 14.4001L126.925 28.2052H125.235L123.083 20.6774L120.933 28.2052Z" fill="#F8F8F8"/>
<path d="M130.532 28.2065H128.91V26.5876H130.532V28.2065Z" fill="#F8F8F8"/>
<path d="M138.386 28.2068C135.237 28.205 132.686 25.6571 132.688 22.5153C132.689 19.374 135.243 16.8285 138.392 16.8303C141.541 16.8321 144.092 19.3799 144.09 22.5218C144.09 24.0293 143.489 25.4748 142.421 26.5408C141.364 27.6276 139.903 28.2306 138.386 28.2068ZM138.386 26.5879C140.637 26.5879 142.461 24.7676 142.461 22.5224C142.461 20.2767 140.637 18.4564 138.386 18.4564C136.135 18.4564 134.311 20.2767 134.311 22.5218C134.311 23.6003 134.74 24.6353 135.505 25.3974C136.261 26.1714 137.304 26.5998 138.386 26.5807V26.5879H138.386Z" fill="#F8F8F8"/>
<path d="M147.669 23.8886V28.2055H146.046V16.8225H149.306C151.557 16.8225 153.382 18.6428 153.381 20.8885C153.381 21.9646 152.953 22.9972 152.191 23.7593C151.792 24.1657 151.312 24.4839 150.781 24.6936L154.301 28.2055H151.995L147.669 23.8886ZM147.669 18.4498V23.3285H149.291C150.642 23.294 151.708 22.1738 151.673 20.8266C151.64 19.5282 150.593 18.4837 149.291 18.4504H147.669V18.4498Z" fill="#F8F8F8"/>
<path d="M160.754 16.8225H163.2V18.4414H160.754C158.504 18.3967 156.644 20.1801 156.598 22.4252C156.554 24.6704 158.341 26.5264 160.591 26.5717C160.646 26.5729 160.7 26.5729 160.754 26.5717H161.566V23.3285H159.935V21.7096H163.195V28.2138H160.75C157.599 28.2138 155.045 25.6654 155.045 22.5223C155.045 19.3793 157.599 16.8308 160.75 16.8308L160.754 16.8225Z" fill="#F8F8F8"/>
<path d="M31.0781 0.00559854C31.167 0.178757 31.2215 0.387237 31.3513 0.520766C32.8251 2.03698 34.0541 3.77459 34.9935 5.67114C35.8063 7.33682 36.4051 9.09941 36.7749 10.9163C37.1847 12.8805 37.2513 14.8632 37.1461 16.8485C37.0902 17.8822 36.8381 18.9052 36.665 19.9304C36.3823 21.6138 35.7998 23.2079 35.0472 24.719C34.4914 25.8354 33.8075 26.889 33.1726 27.9659C33.0558 28.1731 32.8865 28.2493 32.673 28.0456C32.5296 27.9086 32.3569 27.8022 32.0892 27.6006C32.2211 28.2571 32.3027 28.8015 32.4393 29.3296C32.8655 30.9393 33.2495 32.5628 33.7667 34.1427C34.8174 37.3569 36.1529 40.4423 38.2831 43.1151C38.7664 43.7216 39.3141 44.2772 39.9 44.9307C39.757 44.9569 39.613 44.975 39.4683 44.9858C35.5249 44.9858 31.5819 44.9754 27.6385 45C26.9744 45 26.9942 44.4801 26.8645 44.1278C26.4718 43.0922 26.1321 42.0374 25.8455 40.9674C25.5092 39.667 25.2489 38.3455 24.9851 37.0274C24.8056 36.125 24.6758 35.2118 24.5182 34.2827C21.2522 35.2782 17.7508 35.1696 14.5527 33.9739C14.4454 34.7733 14.3401 35.5388 14.24 36.3046C14.0265 37.9341 13.8337 39.5671 13.597 41.194C13.4522 42.1937 13.2469 43.184 13.0579 44.1764C12.9178 44.9044 12.8104 44.9867 12.0888 44.9867H0C0.361692 44.5899 0.625872 44.2738 0.916257 43.986C1.75906 43.1513 2.26208 42.1003 2.7114 41.035C3.15257 39.9909 3.52027 38.9115 3.86607 37.8303C4.31539 36.4257 4.7136 35.0115 5.12898 33.6C5.44299 32.5374 5.74541 31.4708 6.06286 30.4091C6.26733 29.7242 6.49585 29.0466 6.69217 28.3596C6.77636 28.0943 6.72653 27.8039 6.55771 27.5825C5.62384 26.227 4.83474 24.7931 4.30122 23.2316C3.958 22.225 3.5658 21.2252 3.33814 20.1884C2.86519 18.0442 2.55934 15.8668 2.83855 13.6648C3.00308 12.2253 3.24621 10.7957 3.56709 9.38284C3.81581 8.34346 4.24408 7.33897 4.67494 6.35473C5.50271 4.46593 6.62816 2.72315 8.00749 1.19272C8.35758 0.807641 8.67418 0.398005 9.00537 0H9.09429C9.3125 0.385083 9.53802 0.766719 9.74808 1.15654C10.514 2.57971 11.3357 3.97617 12.0196 5.43854C12.664 6.81605 13.1867 8.24784 13.7087 9.68522C14.0854 10.697 14.3938 11.733 14.6322 12.7861C14.966 14.329 15.2276 15.8913 15.4492 17.4541C15.6275 18.6446 15.7448 19.8438 15.7993 21.0465C15.859 22.4735 15.8298 23.9062 15.7993 25.3354C15.7925 25.6864 15.9162 25.8329 16.2289 25.9091C17.3234 26.1839 18.4472 26.3252 19.5756 26.3295C20.9764 26.3295 22.3596 26.3037 23.7093 25.8988C23.8554 25.8553 24.0504 25.6903 24.0702 25.5568C24.1415 25.1096 24.1355 24.6518 24.1728 24.1991C24.355 21.9751 24.4765 19.7392 24.7493 17.5269C24.9662 15.9163 25.2781 14.32 25.6832 12.7465C26.108 11.0222 26.5633 9.29454 27.1811 7.6336C27.8443 5.84861 28.6751 4.1222 29.5054 2.40483C29.9127 1.56187 30.4848 0.799886 30.9823 0.00172202L31.0781 0.00559854ZM30.5763 3.78148L30.4505 3.74056C30.0583 4.58912 29.6334 5.42476 29.2833 6.28883C28.4281 8.36285 27.7408 10.5023 27.2279 12.6871C26.9736 13.7829 26.7691 14.8912 26.5638 15.9973C26.3769 17.0061 26.1797 18.0166 26.0616 19.0336C25.9121 20.3211 25.7768 21.6086 25.7463 22.8965C25.6905 25.3405 25.6741 27.7871 25.7184 30.2312C25.7416 31.5036 25.9203 32.7734 26.05 34.0437C26.1308 34.8302 26.2132 35.6202 26.3619 36.3964C26.5767 37.5163 26.8254 38.6298 27.1076 39.7372C27.4285 40.9872 27.8078 42.2222 28.142 43.4149H36.5713C36.046 42.5499 35.5206 41.7268 35.0408 40.8817C34.7023 40.2873 34.3406 39.6864 34.128 39.045C33.9235 38.442 33.4999 37.9811 33.332 37.3358C32.9561 35.9032 32.3152 34.5416 31.8985 33.1219C31.4574 31.6095 31.1326 30.0619 30.7907 28.5228C30.5574 27.4693 30.3482 26.4006 30.1837 25.3306C30.005 24.1706 29.8718 23.0025 29.7507 21.8343C29.6141 20.5197 29.4496 19.2042 29.4088 17.8848C29.3117 14.7245 29.264 11.5512 29.7589 8.40334C29.9586 7.13351 30.1944 5.86799 30.4161 4.60032C30.4582 4.32938 30.5201 4.05543 30.5763 3.78148ZM24.053 27.4262L21.6143 27.7772C19.6194 28.0581 17.6456 27.838 15.7298 27.3241C14.0313 26.8623 12.4599 26.0185 11.1351 24.8568C8.98131 22.9969 7.63334 20.6265 6.71665 17.9822C6.22523 16.568 5.83863 15.1156 5.77247 13.6162C5.7046 12.078 5.74111 10.5342 5.76302 8.99389C5.77118 8.47656 5.87986 7.9601 5.93914 7.44407L5.8223 7.42642C5.72994 7.66892 5.64017 7.91229 5.54437 8.15351C4.87941 9.80023 4.47992 11.543 4.3605 13.3155C4.27673 14.8739 4.31582 16.4362 4.47734 17.9882C4.58602 19.1297 4.87898 20.2673 5.20932 21.3712C5.82445 23.441 6.78925 25.3892 8.06247 27.1315C9.38639 28.9756 11.0935 30.5099 13.0656 31.6289C14.7761 32.5834 16.6606 33.1839 18.607 33.3954C20.4476 33.6086 22.2256 33.3601 23.992 32.8919C24.327 32.8027 24.3782 32.6274 24.3584 32.3228C24.2884 31.2693 24.2416 30.204 24.1831 29.1461C24.1423 28.5668 24.0921 27.9814 24.0525 27.4301L24.053 27.4262ZM11.7494 43.4498C11.9281 42.3845 12.1184 41.3615 12.264 40.3325C12.4041 39.3444 12.4973 38.3498 12.6141 37.3595C12.7623 36.1224 12.9153 34.8849 13.0811 33.65C13.1137 33.3993 13.0132 33.3153 12.8104 33.1817C11.7795 32.518 10.7464 31.8533 9.76741 31.1168C9.11834 30.6287 8.55905 30.021 7.92759 29.4369C7.8696 29.5549 7.81934 29.6764 7.77681 29.8009C7.49201 30.8265 7.22482 31.8564 6.928 32.8772C6.60367 33.9984 6.23597 35.1011 5.9181 36.2297C5.29609 38.429 4.59418 40.5983 3.58342 42.6538C3.46657 42.9006 3.35919 43.1582 3.23333 43.4472L11.7494 43.4498ZM9.45211 3.57429L9.36577 3.60832C9.3589 3.67853 9.3589 3.74917 9.36577 3.81895C9.65744 5.2025 10.0475 6.57225 10.2227 7.96958C10.465 9.83555 10.6059 11.7136 10.6454 13.5951C10.6888 16.1093 10.4448 18.6132 10.0337 21.0982C10.0174 21.2545 10.0569 21.4117 10.1446 21.5418C11.1661 22.9887 12.414 24.1827 13.9969 25.0101C14.3212 25.1799 14.3856 25.0872 14.3775 24.7831C14.3341 23.1058 14.2993 21.4285 14.243 19.7499C14.2301 19.2059 14.1812 18.6632 14.097 18.1252C13.8633 16.7395 13.6485 15.3473 13.3242 13.9814C12.9659 12.4678 12.542 10.9662 12.0566 9.48794C11.6665 8.30082 11.1682 7.14686 10.6661 6.00109C10.3065 5.17837 9.86063 4.38581 9.45211 3.57817V3.57429ZM33.9939 7.14902C33.9939 7.34673 33.9871 7.42038 33.9939 7.49189C34.1108 8.56659 34.2774 9.63871 34.3359 10.7169C34.375 11.5258 34.3445 12.3364 34.2435 13.1398C34.1022 14.3101 33.9703 15.5054 33.6597 16.6443C33.3423 17.8314 32.8521 18.9759 32.3758 20.1139C32.1318 20.7036 31.8135 21.2601 31.429 21.7692C31.2817 21.9303 31.2215 22.1535 31.2679 22.3675C31.3929 23.2385 31.4827 24.1151 31.6017 24.9873C31.6833 25.5817 31.7907 26.1744 31.8934 26.7667C31.9015 26.8102 31.9694 26.843 32.0102 26.8839C35.7517 22.0342 37.0344 13.7015 33.9935 7.15332V7.14902H33.9939ZM31.0639 19.2796C32.121 17.1185 32.7233 14.7628 32.8324 12.3584C32.975 9.90146 32.6369 7.44063 31.838 5.11376C30.9565 8.08243 30.4827 16.3837 31.0639 19.283V19.2796ZM8.76782 19.1482C9.43536 15.1251 8.96284 5.95285 8.06763 5.2516C6.58864 9.93979 6.80342 14.5302 8.76438 19.1516L8.76782 19.1482Z" fill="#F8F8F8"/>
</svg>
